<?xml version="1.0" encoding="utf-8"?>
<!-- Generator: Adobe Illustrator 16.0.0, SVG Export Plug-In . SVG Version: 6.00 Build 0)  -->
<!DOCTYPE svg PUBLIC "-//W3C//DTD SVG 1.1//EN" "http://www.w3.org/Graphics/SVG/1.1/DTD/svg11.dtd">
<svg version="1.1" id="Layer_1" xmlns="http://www.w3.org/2000/svg" xmlns:xlink="http://www.w3.org/1999/xlink" x="0px" y="0px"
	 width="617px" height="787px" viewBox="0 0 617 787" enable-background="new 0 0 617 787" xml:space="preserve">
<g id="_x33_269" transform="matrix(0.8, 0, 0, 0.8, 0.1, 0.1)">
	<g id="_x33_270">
		<g id="_x33_272" transform="matrix(0.3318174642854211, 0, 0, 0.3318174642854211, 0.5465479369085596, 0.46138824978667137)">
			<g id="_x33_273">
				<path id="_x33_275" opacity="0.7" fill="#363BFD" enable-background="new    " d="M1546.138,671.356L587.394,1775.074
					l45.923-42.476l930.865-1086.788l-919.384,1076.17l-80.364,74.327l972.683-1112.179l27.065-38.319l45.114-63.867l0,0
					L575.912,1785.691l-22.96,21.238L1654.406,518.075l54.134-76.639"/>
				<path id="_x33_276" opacity="0.7" fill="#3362FC" enable-background="new    " d="M566.789,196.796L1807.398,610.7
					L509.885,142.635"/>
				<path id="_x33_277" opacity="0.7" fill="#3180FB" enable-background="new    " d="M742.178,1426.496l-17.11,44.157l5.71-14.719
					L742.178,1426.496L1009.313,48.593l0,0L673.733,1603.129L1007.562,80.113l3.506-63.044"/>
				<path id="_x33_278" opacity="0.7" fill="#29F6EE" enable-background="new    " d="M1221.7,392.612
					c-279.647-125.645-608.201-0.806-733.848,278.838c-125.644,279.647-0.806,608.201,278.842,733.845
					c0.026,0.011,0.055,0.026,0.081,0.037c279.647,125.647,608.201,0.806,733.848-278.838
					c125.644-279.644,0.806-608.199-278.842-733.845C1221.756,392.636,1221.726,392.625,1221.7,392.612"/>
				<path id="_x33_279" opacity="0.7" fill="#3454FC" enable-background="new    " d="M136.681,1393.802l140.833-27.047
					l-78.238,15.024l1300.696-704.122l156.641-135.552"/>
				<path id="_x33_280" opacity="0.7" fill="#2CD2F8" enable-background="new    " d="M186.79,1232.739l-63.173-49.157l12.633,9.83"
					/>
				<path id="_x33_281" opacity="0.7" fill="#308EFA" enable-background="new    " d="M428.998,706.458l979.014,674.192
					l110.564,116.811l-11.055-11.68L357.073,670.484l1261.012,932.103L357.073,670.484l-115.078-57.559"/>
				<path id="_x33_282" opacity="0.7" fill="#3366FB" enable-background="new    " d="M1486.408,1690.277l14.211,7.692
					L1486.408,1690.277L1486.408,1690.277l675.234-139.826L581.674,1409.86l-47.152-11.254l1643.27,151.403L503.086,1391.106
					l1642.402,159.791l-48.458,1.335"/>
				<path id="_x33_283" opacity="0.7" fill="#2CD7F8" enable-background="new    " d="M599.306,1596.591L599.306,1596.591
					L599.306,1596.591"/>
				<path id="_x33_284" opacity="0.7" fill="#3097FA" enable-background="new    " d="M669.072,1054.366
					c135.017-5.183,240.265-118.838,235.082-253.851c-5.18-135.014-118.834-240.262-253.848-235.08
					c-0.022,0.002-0.044,0.002-0.063,0.004c-135.014,5.184-240.262,118.836-235.078,253.85
					c5.184,135.013,118.834,240.262,253.851,235.078C669.031,1054.366,669.053,1054.366,669.072,1054.366"/>
				<path id="_x33_285" opacity="0.7" fill="#345DFC" enable-background="new    " d="M1357.608,1347.328l29.883-58.332
					l-22.411,43.749l7.468-14.583L793.737,565.534l20.23,44.801"/>
				<path id="_x33_286" opacity="0.7" fill="#2BE1F7" enable-background="new    " d="M1368.575,1912.214
					c126.214-51.644,186.665-195.825,135.025-322.039c-51.644-126.21-195.825-186.665-322.042-135.021
					c-0.018,0.007-0.037,0.015-0.055,0.026c-126.214,51.64-186.664,195.821-135.021,322.035
					c51.644,126.214,195.825,186.665,322.039,135.021C1368.538,1912.229,1368.556,1912.221,1368.575,1912.214"/>
				<path id="_x33_287" opacity="0.7" fill="#2CD0F8" enable-background="new    " d="M737.307,1362.584l-28.761-16.33
					l-43.142-24.497l57.522,32.664l-14.381-8.167l14.381,8.167L737.307,1362.584l-43.142-24.497l28.761,16.334l931.98,324.419
					L46.104,1447.337l-33.058-1.096"/>
				<path id="_x33_288" opacity="0.7" fill="#3363FC" enable-background="new    " d="M655.552,1499.326l597.19-567.583
					l66.565-74.202l33.279-37.105l22.191-24.733l-44.378,49.466L452.373,2216.495l878.026-1371.322l33.279-37.101L402.249,2321.438"
					/>
				<path id="_x33_289" opacity="0.7" fill="#3369FB" enable-background="new    " d="M1323.299,1548.869l-42.759-26.054
					l1022.958,224.777L582.225,2014.151l47.03-17.184l0,0"/>
				<path id="_x33_290" opacity="0.7" fill="#2EB4F9" enable-background="new    " d="M1646.927,2031.596
					c-62.08-113.82-204.669-155.762-318.489-93.685c-113.816,62.077-155.762,204.669-93.682,318.489
					c0.007,0.022,0.026,0.048,0.04,0.073c62.077,113.816,204.669,155.762,318.485,93.682
					c113.82-62.077,155.762-204.669,93.686-318.485C1646.953,2031.644,1646.938,2031.618,1646.927,2031.596"/>
				<path id="_x33_291" opacity="0.7" fill="#2BE8F7" enable-background="new    " d="M1270.155,1750.345l-20.469,46.203
					l13.645-30.799l0,0l-6.824,15.4L1270.155,1750.345"/>
				<path id="_x33_292" opacity="0.7" fill="#2DC3F8" enable-background="new    " d="M1281.861,1250.552l64.067,21.845"/>
				<path id="_x33_293" opacity="0.7" fill="#2CCEF8" enable-background="new    " d="M1250.035,1952.608l621.842-421.261
					l85.493-82.774l48.851-47.299"/>
				<path id="_x33_294" opacity="0.7" fill="#327CFB" enable-background="new    " d="M1250.955,1302.858l15.551-7.056
					L1250.955,1302.858l46.655-21.164l-62.209,28.22l-839.056,580.923l40.776-31.016L1629.173,700.05l-21.9,26.212l87.608-104.836
					l-21.904,26.208L409.934,1880.499L1705.829,608.321"/>
				<path id="_x33_295" opacity="0.7" fill="#3188FA" enable-background="new    " d="M1850.529,1246.424
					c-87.895-72.124-217.615-59.336-289.738,28.559c-72.12,87.895-59.336,217.615,28.559,289.735
					c87.895,72.124,217.615,59.336,289.739-28.559C1951.208,1448.264,1938.424,1318.544,1850.529,1246.424"/>
				<path id="_x33_296" opacity="0.7" fill="#3369FB" enable-background="new    " d="M1224.945,2227.763l-28.835,18.88
					l-14.421,9.44l0,0l0,0l-28.835,18.88l825.827-648.29l0,0l-52.898,44.198l13.225-11.047l0,0L779.047,2761.968l35.56-37.528
					l1177.304-1108.818L802.754,2736.948l-106.675,112.595l35.56-37.531l35.556-37.531L1965.46,1637.721l79.349-66.3
					L767.194,2774.48l-35.556,37.531l-47.413,50.043l11.853-12.512l-94.826,100.087l59.266-62.555"/>
				<path id="_x33_297" opacity="0.7" fill="#2DBFF8" enable-background="new    " d="M1799.982,1322.996l9.697-68.57l0,0
					l-982.722-223.784"/>
			</g>
		</g>
	</g>
</g>
</svg>
