<svg id="Layer_1" data-name="Layer 1" xmlns="http://www.w3.org/2000/svg" viewBox="0 0 718.48 802.07"><defs><style>.cls-1{fill:#363bfd;}.cls-1,.cls-10,.cls-11,.cls-12,.cls-13,.cls-14,.cls-15,.cls-16,.cls-17,.cls-18,.cls-19,.cls-2,.cls-20,.cls-21,.cls-22,.cls-3,.cls-4,.cls-5,.cls-6,.cls-7,.cls-8,.cls-9{opacity:0.7;isolation:isolate;}.cls-2{fill:#3362fc;}.cls-3{fill:#3180fb;}.cls-4{fill:#29f6ee;}.cls-5{fill:#3454fc;}.cls-6{fill:#2cd2f8;}.cls-7{fill:#308efa;}.cls-8{fill:#3366fb;}.cls-9{fill:#2cd7f8;}.cls-10{fill:#3097fa;}.cls-11{fill:#345dfc;}.cls-12{fill:#2be1f7;}.cls-13{fill:#2cd0f8;}.cls-14{fill:#3363fc;}.cls-15{fill:#3369fb;}.cls-16{fill:#2eb4f9;}.cls-17{fill:#2be8f7;}.cls-18{fill:#2dc3f8;}.cls-19{fill:#2ccef8;}.cls-20{fill:#327cfb;}.cls-21{fill:#3188fa;}.cls-22{fill:#2dbff8;}.cls-23{fill:#e2e3e4;}</style></defs><title>Morph</title><g id="_3269" data-name="3269"><g id="_3270" data-name="3270"><g id="_3272" data-name="3272"><g id="_3273" data-name="3273"><path id="_3275" data-name="3275" class="cls-1" d="M552.06,178.46l-254.5,293,12.19-11.28,247.1-288.49L312.79,457.35l-21.33,19.73,258.2-295.23,7.18-10.17,12-17h0L294.51,474.26l-6.09,5.64L580.8,137.77l14.37-20.34" transform="translate(-46.61 -4.78)"/><path id="_3276" data-name="3276" class="cls-2" d="M292.08,52.49,621.41,162.36,277,38.11" transform="translate(-46.61 -4.78)"/><path id="_3277" data-name="3277" class="cls-3" d="M338.64,378.91l-4.54,11.72,1.51-3.91,3-7.81L409.55,13.15h0L320.47,425.8,409.09,21.51,410,4.78" transform="translate(-46.61 -4.78)"/><path id="_3278" data-name="3278" class="cls-4" d="M465.93,104.47A147.35,147.35,0,1,0,345.15,373.29h0A147.35,147.35,0,1,0,466,104.48h0" transform="translate(-46.61 -4.78)"/><path id="_3279" data-name="3279" class="cls-5" d="M177.91,370.24l37.38-7.18-20.77,4L539.8,180.13l41.58-36" transform="translate(-46.61 -4.78)"/><path id="_3280" data-name="3280" class="cls-6" d="M191.21,327.48l-16.77-13L177.8,317" transform="translate(-46.61 -4.78)"/><path id="_3281" data-name="3281" class="cls-7" d="M255.51,187.78l259.88,179,29.35,31-2.93-3.1L236.41,178.23,571.15,425.66,236.41,178.23l-30.55-15.28" transform="translate(-46.61 -4.78)"/><path id="_3282" data-name="3282" class="cls-8" d="M536.2,448.94l3.77,2-3.77-2h0l179.24-37.12L296,374.5l-12.52-3L719.73,411.7,275.17,369.52l436,42.42-12.86.35" transform="translate(-46.61 -4.78)"/><path id="_3283" data-name="3283" class="cls-9" d="M300.72,424.07h0" transform="translate(-46.61 -4.78)"/><path id="_3284" data-name="3284" class="cls-10" d="M319.24,280.13a64.94,64.94,0,1,0-5-129.79h0a64.94,64.94,0,1,0,5,129.79h0" transform="translate(-46.61 -4.78)"/><path id="_3285" data-name="3285" class="cls-11" d="M502,357.9l7.93-15.48L504,354l2-3.87L352.33,150.37l5.37,11.89" transform="translate(-46.61 -4.78)"/><path id="_3286" data-name="3286" class="cls-12" d="M504.92,507.85a65.55,65.55,0,1,0-49.64-121.33h0a65.55,65.55,0,1,0,49.64,121.33h0" transform="translate(-46.61 -4.78)"/><path id="_3287" data-name="3287" class="cls-13" d="M337.35,361.95l-7.63-4.33-11.45-6.5,15.27,8.67-3.82-2.17,3.82,2.17,3.82,2.17-11.45-6.5,7.63,4.34,247.4,86.12L153.87,384.45l-8.78-.29" transform="translate(-46.61 -4.78)"/><path id="_3288" data-name="3288" class="cls-14" d="M315.65,398.25,474.17,247.58l17.67-19.7,8.83-9.85,5.89-6.57L494.79,224.6l-233.07,364,233.07-364,8.83-9.85L248.41,616.48" transform="translate(-46.61 -4.78)"/><path id="_3289" data-name="3289" class="cls-15" d="M492.9,411.4l-11.35-6.92L753.1,464.15,296.18,534.91l12.48-4.56h0" transform="translate(-46.61 -4.78)"/><path id="_3290" data-name="3290" class="cls-16" d="M578.81,539.54A62.31,62.31,0,1,0,469.4,599.22v0a62.31,62.31,0,0,0,109.41-59.67v0" transform="translate(-46.61 -4.78)"/><path id="_3291" data-name="3291" class="cls-17" d="M478.79,464.88l-5.43,12.26L477,469h0l-1.81,4.09,3.62-8.18" transform="translate(-46.61 -4.78)"/><path id="_3292" data-name="3292" class="cls-18" d="M481.9,332.21l17,5.8" transform="translate(-46.61 -4.78)"/><path id="_3293" data-name="3293" class="cls-19" d="M473.45,518.57,638.52,406.75l22.69-22,13-12.56" transform="translate(-46.61 -4.78)"/><path id="_3294" data-name="3294" class="cls-20" d="M473.7,346.09l4.13-1.87-4.13,1.87,12.38-5.62L469.57,348,246.84,502.18l10.82-8.23L574.1,186.08l-5.81,7,23.26-27.83-5.81,7L250.45,499.43l344-337.7" transform="translate(-46.61 -4.78)"/><path id="_3295" data-name="3295" class="cls-21" d="M632.86,331.11A54.65,54.65,0,1,0,640.44,408a54.65,54.65,0,0,0-7.58-76.91" transform="translate(-46.61 -4.78)"/><path id="_3296" data-name="3296" class="cls-15" d="M466.79,591.61l-7.65,5-3.83,2.51h0l-7.65,5L666.88,432.05h0l-14,11.73,3.51-2.93h0L348.43,733.42l9.44-10L670.39,429.12,354.72,726.78,326.4,756.67l9.44-10,9.44-10L663.37,435l21.06-17.6L345.28,736.74l-9.44,10L323.26,760l3.15-3.32-25.17,26.57L317,766.63" transform="translate(-46.61 -4.78)"/><path id="_3297" data-name="3297" class="cls-22" d="M619.44,351.44l2.57-18.2h0l-260.87-59.4" transform="translate(-46.61 -4.78)"/></g></g></g></g><path class="cls-23" d="M147.45,693.41a37.87,37.87,0,0,0-37.81-37.81,37.87,37.87,0,0,0-37.81,37.81v63H46.61v-63a60.72,60.72,0,0,1,18.47-44.56,60.72,60.72,0,0,1,44.56-18.46,61,61,0,0,1,44.62,18.4,85.16,85.16,0,0,1,5.8,6.68,72,72,0,0,1,5.92-6.68,63,63,0,0,1,89.05.06,60.73,60.73,0,0,1,18.47,44.56v63H248.29v-63a37.79,37.79,0,0,0-64.54-26.72,36.42,36.42,0,0,0-11.09,26.72v63H147.45Z" transform="translate(-46.61 -4.78)"/><path class="cls-23" d="M393.69,648.85A63,63,0,1,1,304.57,738a63,63,0,1,1,89.12-89.12Zm-44.56,6.74a37.87,37.87,0,1,0,26.72,11.09A36.43,36.43,0,0,0,349.13,655.59Z" transform="translate(-46.61 -4.78)"/><path class="cls-23" d="M450,693.41v63H424.76v-63a63,63,0,0,1,63-63v25.21A37.87,37.87,0,0,0,450,693.41Z" transform="translate(-46.61 -4.78)"/><path class="cls-23" d="M500.39,693.41a63,63,0,1,1,63,63q-21.56,0-37.81-12.48v62.9H500.39Zm63,37.81a37.87,37.87,0,1,0-26.72-11.09A36.42,36.42,0,0,0,563.41,731.22Z" transform="translate(-46.61 -4.78)"/><path class="cls-23" d="M664.25,642.86q16.26-12.48,37.81-12.48a63,63,0,0,1,63,63v63H739.88v-63a37.81,37.81,0,0,0-75.63,0v63H639V580h25.21Z" transform="translate(-46.61 -4.78)"/></svg>